<?xml version="1.0" encoding="UTF-8" standalone="no"?>
<!-- Created with Inkscape (http://www.inkscape.org/) -->

<svg
   xmlns:osb="http://www.openswatchbook.org/uri/2009/osb"
   xmlns:dc="http://purl.org/dc/elements/1.1/"
   xmlns:cc="http://creativecommons.org/ns#"
   xmlns:rdf="http://www.w3.org/1999/02/22-rdf-syntax-ns#"
   xmlns:svg="http://www.w3.org/2000/svg"
   xmlns="http://www.w3.org/2000/svg"
   xmlns:sodipodi="http://sodipodi.sourceforge.net/DTD/sodipodi-0.dtd"
   xmlns:inkscape="http://www.inkscape.org/namespaces/inkscape"
   version="1.1"
   id="svg837"
   width="150"
   height="62"
   viewBox="0 0 150 62"
   sodipodi:docname="title.svg"
   inkscape:version="0.92.5 (2060ec1f9f, 2020-04-08)">
  <metadata
     id="metadata843">
    <rdf:RDF>
      <cc:Work
         rdf:about="">
        <dc:format>image/svg+xml</dc:format>
        <dc:type
           rdf:resource="http://purl.org/dc/dcmitype/StillImage" />
        <dc:title />
      </cc:Work>
    </rdf:RDF>
  </metadata>
  <defs
     id="defs841">
    <linearGradient
       osb:paint="solid"
       id="linearGradient919">
      <stop
         id="stop917"
         offset="0"
         style="stop-color:#ffffff;stop-opacity:1;" />
    </linearGradient>
  </defs>
  <sodipodi:namedview
     pagecolor="#ffffff"
     bordercolor="#666666"
     borderopacity="1"
     objecttolerance="10"
     gridtolerance="10"
     guidetolerance="10"
     inkscape:pageopacity="0"
     inkscape:pageshadow="2"
     inkscape:window-width="1920"
     inkscape:window-height="1023"
     id="namedview839"
     showgrid="false"
     inkscape:zoom="11.313709"
     inkscape:cx="-7.9733609"
     inkscape:cy="22.697281"
     inkscape:window-x="0"
     inkscape:window-y="27"
     inkscape:window-maximized="1"
     inkscape:current-layer="svg837" />
  <g
     transform="matrix(0.22935645,0,0,0.22935645,72.886977,-10.869217)"
     id="layer1"
     inkscape:label="Livello 1">
    <circle
       r="29.293154"
       cy="179.26311"
       cx="117.55521"
       id="path832"
       style="fill:#ffa335;fill-opacity:1;stroke-width:0.26458332" />
    <circle
       r="20.977678"
       cy="175.10539"
       cx="112.64152"
       id="path834"
       style="fill:#fff74a;fill-opacity:1;stroke-width:0.53908038" />
    <path
       sodipodi:nodetypes="cscscsc"
       inkscape:connector-curvature="0"
       id="path844"
       d="m 98.845381,143.92234 c 0,0 9.463459,-5.35503 18.898799,-5.29167 10.9516,0.0735 20.41072,5.66965 20.41072,5.66965 0,0 -10.78491,-17.17563 -11.33929,-33.63988 -0.92267,-27.402085 3.40179,-48.758931 3.40179,-48.758931 0,0 -27.42235,24.468691 -33.639875,53.294641 -3.581369,16.60409 2.267856,28.72619 2.267856,28.72619 z"
       style="fill:#ffae44;fill-opacity:1;stroke:none;stroke-width:0.1;stroke-linecap:butt;stroke-linejoin:miter;stroke-miterlimit:4;stroke-dasharray:none;stroke-opacity:1;paint-order:normal" />
    <path
       inkscape:transform-center-x="-75.830753"
       inkscape:transform-center-y="-2.612051"
       style="fill:#ffa335;fill-opacity:1;stroke:none;stroke-width:22.10000038;stroke-linecap:butt;stroke-linejoin:miter;stroke-miterlimit:4;stroke-dasharray:none;stroke-opacity:1;paint-order:markers stroke fill"
       d="m 150.75763,159.04043 c 0,0 5.90025,9.13348 6.38978,18.55632 0.56824,10.9371 -4.46412,20.70783 -4.46412,20.70783 0,0 16.51428,-11.77264 32.91777,-13.29065 27.30097,-2.52647 48.87448,0.53934 48.87448,0.53934 0,0 -26.03323,-25.94171 -55.17393,-30.45976 -16.78539,-2.60244 -28.54398,3.94692 -28.54398,3.94692 z"
       id="path923"
       inkscape:connector-curvature="0"
       sodipodi:nodetypes="cscscsc" />
    <path
       sodipodi:nodetypes="cscscsc"
       inkscape:connector-curvature="0"
       id="path925"
       d="m 137.22647,212.69323 c 0,0 -9.04964,6.02806 -18.46467,6.65002 -10.92803,0.72194 -20.76853,-4.17257 -20.76853,-4.17257 0,0 12.00363,16.34715 13.75208,32.72768 2.91002,27.26275 0.1478,48.87722 0.1478,48.87722 0,0 25.57317,-26.39535 29.68112,-55.59667 2.36621,-16.82033 -4.3478,-28.48568 -4.3478,-28.48568 z"
       style="fill:#ffa335;fill-opacity:1;stroke:none;stroke-width:22.10000038;stroke-linecap:butt;stroke-linejoin:miter;stroke-miterlimit:4;stroke-dasharray:none;stroke-opacity:1;paint-order:markers stroke fill"
       inkscape:transform-center-y="75.728948"
       inkscape:transform-center-x="-3.250529" />
    <path
       inkscape:transform-center-x="75.964906"
       inkscape:transform-center-y="0.15338493"
       style="fill:#ffa335;fill-opacity:1;stroke:none;stroke-width:22.10000038;stroke-linecap:butt;stroke-linejoin:miter;stroke-miterlimit:4;stroke-dasharray:none;stroke-opacity:1;paint-order:markers stroke fill"
       d="m 83.277542,197.06844 c 0,0 -5.388061,-9.4447 -5.357693,-18.8802 0.03522,-10.95179 5.598264,-20.43042 5.598264,-20.43042 0,0 -17.137818,10.84489 -33.600029,11.45681 -27.398695,1.01849 -48.7705297,-3.2313 -48.7705297,-3.2313 0,0 24.5643987,27.33663 53.4119097,33.45336 16.616507,3.5233 28.718078,-2.36825 28.718078,-2.36825 z"
       id="path927"
       inkscape:connector-curvature="0"
       sodipodi:nodetypes="cscscsc" />
    <path
       style="fill:#ffa335;fill-opacity:1;stroke:none;stroke-width:0.1;stroke-linecap:butt;stroke-linejoin:miter;stroke-miterlimit:4;stroke-dasharray:none;stroke-opacity:1;paint-order:normal"
       d="m 98.845381,143.92234 c 0,0 9.463459,-5.35503 18.898799,-5.29167 10.9516,0.0735 20.41072,5.66965 20.41072,5.66965 0,0 -10.78491,-17.17563 -11.33929,-33.63988 -0.92267,-27.402085 3.40179,-48.758931 3.40179,-48.758931 0,0 -27.42235,24.468691 -33.639875,53.294641 -3.581369,16.60409 2.267856,28.72619 2.267856,28.72619 z"
       id="path929"
       inkscape:connector-curvature="0"
       sodipodi:nodetypes="cscscsc" />
  </g>
  <path
     id="path74569"
     style="fill:#39ba5a;fill-opacity:1"
     d="m 125.41949,37.650785 c -0.28476,-0.742068 -0.38314,-4.454568 -0.21862,-8.25 l 0.29913,-7.232241 4.87294,0.02164 c 6.99438,0.03107 9.53067,1.050986 3.12706,1.75787 -4.1755,0.460926 -5.05139,0.912991 -5.31162,2.741433 -0.27391,1.924483 0.21024,2.227074 4,2.5 C 134.55977,29.360271 136.5,29.95 136.5,30.5 c 0,0.55 -1.94023,1.139729 -4.31162,1.310509 -3.78976,0.272926 -4.27391,0.575517 -4,2.5 0.26898,1.889903 1.03356,2.230973 5.58778,2.492658 C 140.94079,37.214845 139.42402,39 131.9096,39 c -4.08963,0 -6.13558,-0.425328 -6.49011,-1.349215 z m -6.40843,-9.671452 C 120.51442,25.170271 119.46451,24 115.44098,24 112.28434,24 112,24.247896 112,27 c 0,2.658755 0.33724,3 2.96482,3 1.95146,0 3.33444,-0.690646 4.04624,-2.020667 z m -9.57414,10.352103 c -0.87779,-1.520383 -0.63442,-4.246719 -0.63135,-7.647748 0.003,-3.401028 0.0291,-6.50312 -1.02245,-7.433688 -0.80523,-0.979118 -0.52341,-1.40625 6.05925,-1.25 6.12062,0.145283 7.23669,0.279216 8.18482,2.05081 0.86298,1.612483 0.69974,2.734586 -0.76372,5.25 -1.48223,2.547675 -2.615,3.262396 -5.56237,3.509555 -3.35839,0.281627 -3.7011,0.582566 -3.7011,3.25 0,2.93521 -1.38757,4.3071 -2.56308,2.271071 z M 89,31.5 c 0,-11.490712 0.347787,-17.40309 1,-17 0.600821,0.371328 1,7.157379 1,17 0,9.842621 -0.399179,16.628672 -1,17 -0.652213,0.40309 -1,-5.509288 -1,-17 z M 81.75,48.422262 C 81.3375,48.006684 81,44.591667 81,40.833333 81,33.387836 81.436679,34 78.440983,34 75.81847,34 75.879986,34.003202 76.5,33 77.222779,31.830521 77.991476,32 79.059017,32 81.401553,32 81,32.661996 81,23.559017 81,18.916476 81.45,14.839919 82,14.5 c 0.638557,-0.39465 1,2.656282 1,8.440983 C 83,31.99298 83.001983,32 85.559017,32 88.269918,32 88.17444,31.831835 87.5,33 c -0.635389,1.100526 -0.699149,1 -2.516953,1 -2.329003,0 -1.896476,-0.06346 -2.190983,7.588928 C 82.631428,45.762839 82.1625,48.837839 81.75,48.422262 Z" />
  <path
     id="path74532"
     style="fill:#000000"
     d="m 60.5,29 c 0,-1.130939 3.039919,-1 6,-1 2.960081,0 5.660081,0.45 6,1 0.388242,0.628189 -1.842621,1 -6,1 -4.157379,0 -6,0.208058 -6,-1 z m 4.535435,11.75 C 65.013308,38.412523 65.713979,35.375 66.5,34 c 1.614082,-2.823542 1.464565,-3.132027 1.464565,4.25 0,7.092803 0.278601,6.736809 -1.464565,6.75 -1.658098,0.01255 -1.420324,0.423735 -1.464565,-4.25 z M 44.361626,43.5 c -0.316582,-0.825 -0.257387,-2.2875 0.131545,-3.25 0.628299,-1.554872 0.803889,-1.499121 1.574764,0.5 0.992599,2.574119 5.930654,3.161553 7.785827,0.926206 C 55.259066,39.982918 53.462213,38 50.522506,38 45.539521,38 42.095008,32.304992 45.2,29.2 45.86,28.54 48.574123,28 51.231385,28 c 5.110711,0 6.638852,1.375935 5.275444,4.75 -0.628299,1.554872 -0.803889,1.499121 -1.574764,-0.5 -1.001508,-2.597221 -5.936797,-3.154151 -7.821951,-0.882679 -1.53095,1.844681 0.840665,3.776736 5.583464,4.548615 4.795505,0.780457 6.198157,3.074159 3.964551,6.483073 C 55.198126,44.627255 54.236156,45 49.945562,45 46.416202,45 44.767253,44.557047 44.361626,43.5 Z M 36.986345,35.25 C 36.941173,32.768861 35.568358,30 34.383369,30 c -0.760853,0 -1.084623,0.437599 -1.397024,0.75 -0.455207,0.788442 -0.621776,1.794624 -0.944756,3 -0.512781,1.913723 0.116243,2.25 2.34178,2.25 1.439147,0 2.610486,-0.3375 2.602976,-0.75 z m -7.909493,5.5 c 0.04227,-2.3375 0.619186,-6.05 1.282039,-8.25 1.049933,-3.484712 1.583398,-4 4.141109,-4 2.557711,0 3.091176,0.515288 4.141109,4 C 40.13151,37.446619 40.348377,45 39,45 38.45,45 38,44.136804 38,43.081787 38,39.683523 36.8405,38 34.5,38 32.1595,38 31,39.683523 31,43.081787 31,44.136804 30.55,45 30,45 29.45,45 29.034583,43.0875 29.076852,40.75 Z m -19.073098,8.113663 -0.0038,-16.471313 0.011737,-13.331229 2.100124,-2.540602 0.111862,14.686704 0.05535,15.292777 20.5171,0.270852 c 12.920196,0.170563 20.076209,0.626692 19.690983,1.25 -0.678411,1.097693 -42.483358,0.842811 -42.483358,0.842811 z"
     inkscape:connector-curvature="0"
     sodipodi:nodetypes="sssssssscssssssssssssssssscsssssssssssssccccccsscc" />
  <path
     style="fill:#000000"
     d=""
     id="path74528"
     inkscape:connector-curvature="0" />
</svg>
