<?xml version="1.0" encoding="UTF-8" standalone="no"?>
<svg
   version="1.1"
   id="svg837"
   width="426.23901"
   height="178.623"
   viewBox="0 0 426.23901 178.623"
   sodipodi:docname="title.svg"
   inkscape:version="1.2 (dc2aedaf03, 2022-05-15)"
   xml:space="preserve"
   inkscape:export-filename="title.png"
   inkscape:export-xdpi="33.783863"
   inkscape:export-ydpi="33.783863"
   xmlns:inkscape="http://www.inkscape.org/namespaces/inkscape"
   xmlns:sodipodi="http://sodipodi.sourceforge.net/DTD/sodipodi-0.dtd"
   xmlns="http://www.w3.org/2000/svg"
   xmlns:svg="http://www.w3.org/2000/svg"
   xmlns:rdf="http://www.w3.org/1999/02/22-rdf-syntax-ns#"
   xmlns:cc="http://creativecommons.org/ns#"><metadata
     id="metadata843"><rdf:RDF><cc:Work
         rdf:about="" /></rdf:RDF></metadata><defs
     id="defs841"><linearGradient
       id="linearGradient919"
       inkscape:swatch="solid"><stop
         id="stop917"
         offset="0"
         style="stop-color:#ffffff;stop-opacity:1;" /></linearGradient></defs><sodipodi:namedview
     pagecolor="#ffffff"
     bordercolor="#666666"
     borderopacity="1"
     objecttolerance="10"
     gridtolerance="10"
     guidetolerance="10"
     inkscape:pageopacity="0"
     inkscape:pageshadow="2"
     inkscape:window-width="1920"
     inkscape:window-height="999"
     id="namedview839"
     showgrid="false"
     inkscape:zoom="2.8284272"
     inkscape:cx="18.384776"
     inkscape:cy="120.03137"
     inkscape:window-x="1920"
     inkscape:window-y="0"
     inkscape:window-maximized="1"
     inkscape:current-layer="svg837"
     inkscape:document-rotation="0"
     inkscape:pagecheckerboard="0"
     inkscape:showpageshadow="0"
     inkscape:deskcolor="#d1d1d1" /><g
     id="g1382"
     transform="matrix(0.86537032,0,0,0.86537032,27.560757,8.5857754)"><g
       id="g1369"><g
         transform="matrix(0.7605068,0,0,0.76050621,208.55014,-47.076482)"
         id="layer1"
         inkscape:label="Livello 1"><circle
           r="29.293154"
           cy="179.26311"
           cx="117.55521"
           id="path832"
           style="fill:#ffa335;fill-opacity:1;stroke-width:0.264583" /><circle
           r="20.977678"
           cy="175.10539"
           cx="112.64152"
           id="path834"
           style="fill:#fff74a;fill-opacity:1;stroke-width:0.53908" /><path
           sodipodi:nodetypes="cscscsc"
           inkscape:connector-curvature="0"
           id="path844"
           d="m 98.845381,143.92234 c 0,0 9.463459,-5.35503 18.898799,-5.29167 10.9516,0.0735 20.41072,5.66965 20.41072,5.66965 0,0 -10.78491,-17.17563 -11.33929,-33.63988 -0.92267,-27.402085 3.40179,-48.758931 3.40179,-48.758931 0,0 -27.42235,24.468691 -33.639875,53.294641 -3.581369,16.60409 2.267856,28.72619 2.267856,28.72619 z"
           style="fill:#ffae44;fill-opacity:1;stroke:none;stroke-width:0.1;stroke-linecap:butt;stroke-linejoin:miter;stroke-miterlimit:4;stroke-dasharray:none;stroke-opacity:1;paint-order:normal" /><path
           inkscape:transform-center-x="-75.830753"
           inkscape:transform-center-y="-2.612051"
           style="fill:#ffa335;fill-opacity:1;stroke:none;stroke-width:22.1;stroke-linecap:butt;stroke-linejoin:miter;stroke-miterlimit:4;stroke-dasharray:none;stroke-opacity:1;paint-order:markers stroke fill"
           d="m 150.75763,159.04043 c 0,0 5.90025,9.13348 6.38978,18.55632 0.56824,10.9371 -4.46412,20.70783 -4.46412,20.70783 0,0 16.51428,-11.77264 32.91777,-13.29065 27.30097,-2.52647 48.87448,0.53934 48.87448,0.53934 0,0 -26.03323,-25.94171 -55.17393,-30.45976 -16.78539,-2.60244 -28.54398,3.94692 -28.54398,3.94692 z"
           id="path923"
           inkscape:connector-curvature="0"
           sodipodi:nodetypes="cscscsc" /><path
           sodipodi:nodetypes="cscscsc"
           inkscape:connector-curvature="0"
           id="path925"
           d="m 137.22647,212.69323 c 0,0 -9.04964,6.02806 -18.46467,6.65002 -10.92803,0.72194 -20.76853,-4.17257 -20.76853,-4.17257 0,0 12.00363,16.34715 13.75208,32.72768 2.91002,27.26275 0.1478,48.87722 0.1478,48.87722 0,0 25.57317,-26.39535 29.68112,-55.59667 2.36621,-16.82033 -4.3478,-28.48568 -4.3478,-28.48568 z"
           style="fill:#ffa335;fill-opacity:1;stroke:none;stroke-width:22.1;stroke-linecap:butt;stroke-linejoin:miter;stroke-miterlimit:4;stroke-dasharray:none;stroke-opacity:1;paint-order:markers stroke fill"
           inkscape:transform-center-y="75.728948"
           inkscape:transform-center-x="-3.250529" /><path
           inkscape:transform-center-x="75.964906"
           inkscape:transform-center-y="0.15338493"
           style="fill:#ffa335;fill-opacity:1;stroke:none;stroke-width:22.1;stroke-linecap:butt;stroke-linejoin:miter;stroke-miterlimit:4;stroke-dasharray:none;stroke-opacity:1;paint-order:markers stroke fill"
           d="m 83.277542,197.06844 c 0,0 -5.388061,-9.4447 -5.357693,-18.8802 0.03522,-10.95179 5.598264,-20.43042 5.598264,-20.43042 0,0 -17.137818,10.84489 -33.600029,11.45681 -27.398695,1.01849 -48.7705297,-3.2313 -48.7705297,-3.2313 0,0 24.5643987,27.33663 53.4119097,33.45336 16.616507,3.5233 28.718078,-2.36825 28.718078,-2.36825 z"
           id="path927"
           inkscape:connector-curvature="0"
           sodipodi:nodetypes="cscscsc" /><path
           style="fill:#ffa335;fill-opacity:1;stroke:none;stroke-width:0.1;stroke-linecap:butt;stroke-linejoin:miter;stroke-miterlimit:4;stroke-dasharray:none;stroke-opacity:1;paint-order:normal"
           d="m 98.845381,143.92234 c 0,0 9.463459,-5.35503 18.898799,-5.29167 10.9516,0.0735 20.41072,5.66965 20.41072,5.66965 0,0 -10.78491,-17.17563 -11.33929,-33.63988 -0.92267,-27.402085 3.40179,-48.758931 3.40179,-48.758931 0,0 -27.42235,24.468691 -33.639875,53.294641 -3.581369,16.60409 2.267856,28.72619 2.267856,28.72619 z"
           id="path929"
           inkscape:connector-curvature="0"
           sodipodi:nodetypes="cscscsc" /></g><path
         id="path74569"
         style="fill:#39ba5a;fill-opacity:1;stroke-width:3.31583"
         d="m 382.73897,113.80743 c -0.94422,-2.46057 -1.27044,-14.770573 -0.7249,-27.35557 0,0 0.18037,-18.661879 2.64976,-20.872269 4.01309,-3.592238 14.70717,-3.55493 14.70717,-3.55493 11.5961,0.0515 19.28851,-0.04828 21.42948,1.452347 3.03882,2.129958 4.06762,4.744424 -0.56526,4.667358 -1.94598,-0.0325 -5.39434,0.262913 -10.70266,0.227167 -13.92903,-0.09378 -16.74955,3.02732 -17.61242,9.090116 -0.90824,6.381253 0.69711,7.384593 13.26332,8.289568 7.86312,0.566307 14.29658,2.521744 14.29658,4.34545 0,1.823704 -6.43346,3.779143 -14.29658,4.34542 -12.56621,0.904975 -14.17156,1.908315 -13.26332,8.289573 0.89189,6.26659 3.4271,7.39752 18.52812,8.26522 11.87832,0.68253 16.61057,0.12797 15.67595,2.08166 -0.4939,1.03246 -1.00638,3.13618 -4.66239,4.10101 -3.65601,0.96483 -10.97363,1.10165 -17.20275,1.10165 -13.56052,0 -20.34454,-1.41032 -21.5201,-4.47377 z M 361.48971,81.738572 c 4.98489,-9.314363 1.50356,-13.194777 -11.83778,-13.194777 -10.46687,0 -11.40969,0.821979 -11.40969,9.947478 0,8.81597 1.11822,9.94748 9.83083,9.94748 6.47071,0 11.05644,-2.290063 13.41664,-6.700181 z m -31.74622,34.325778 c -2.91059,-5.04132 -2.10362,-14.08138 -2.09344,-25.358606 0.01,-11.277218 0.0965,-21.563217 -3.39028,-24.64882 -6.48005,-3.246586 -1.73552,-4.66288 20.09146,-4.144783 20.29493,0.481733 23.99561,0.925832 27.13945,6.800129 2.86151,5.346715 2.32022,9.067413 -2.53237,17.40809 -4.91482,8.447649 -8.67087,10.817537 -18.44387,11.637077 -11.13585,0.93383 -12.2722,1.93169 -12.2722,10.776443 0,9.73264 -4.60095,14.28159 -8.49875,7.53047 z M 261.97817,93.412493 c 0,-38.101208 -0.50473,-57.291149 1.65791,-55.954573 0.99611,0.615629 3.71078,3.434802 4.27016,8.946979 0.60108,5.923296 0.70358,30.68938 0.70358,47.007594 0,16.318217 -1.234,40.355247 -1.7168,50.219277 -0.21358,4.36355 -1.54538,5.15478 -3.57732,5.56362 -1.10164,0.22165 -1.33753,-17.68169 -1.33753,-55.782897 z m -26.52664,30.947717 c 0,-12.34399 -0.10316,-22.65946 -0.10316,-22.65946 0,0 -3.41545,0.001 -8.38205,0.001 -8.69581,0 -8.49182,0.0106 -6.43597,-3.315823 2.39661,-3.877794 4.94547,-3.315831 8.48527,-3.315831 3.88372,0 6.38722,-0.03774 6.38722,-0.03774 0,0 0.0487,-12.859157 0.0487,-27.951105 0,-15.393861 0.30676,-23.137552 1.26426,-25.055762 0.6923,-1.386996 4.30554,-7.098221 4.50348,-3.947015 0.30069,4.787024 0.86391,17.362953 0.86391,26.953488 0,15.007423 0.18391,30.084677 0.18391,30.084677 0,0 4.06203,-0.04655 8.30137,-0.04655 8.98889,0 8.6723,-0.557607 6.43598,3.315828 -2.10684,3.649153 -2.31826,3.315823 -8.34579,3.315823 -3.86128,0 -6.57671,0.0616 -6.57671,0.0616 0,0 -0.19994,12.415 -0.68821,25.102 -0.26634,6.91998 -0.0478,17.19898 -0.82831,21.14503 -0.83903,4.2413 -4.36976,-0.5532 -4.61051,-2.68195 -0.47379,-4.18943 -0.50246,-20.41548 -0.50338,-20.9685 z"
         sodipodi:nodetypes="scsssssssssssssssssssssccsssssssssssssccssscsssscssscsssc" /></g><path
       id="path74532"
       style="fill:#1f1829;fill-opacity:1;stroke-width:3.31583"
       d="m 167.47704,85.122926 c 0,-3.749997 10.07985,-3.315827 19.89497,-3.315827 9.81512,0 18.76786,1.492123 19.89498,3.315827 1.28733,2.082966 -6.10982,3.315827 -19.89498,3.315827 -13.78516,0 -19.89497,0.689884 -19.89497,-3.315827 z m 15.03872,38.960964 c -0.0733,-7.75067 2.24994,-17.82257 4.85625,-22.38183 5.35203,-9.362377 4.85625,-10.385259 4.85625,14.09226 0,23.51851 0.9238,22.3381 -4.85625,22.38183 -5.49798,0.0416 -4.70956,1.40504 -4.85625,-14.09226 z m -68.55081,9.11852 c -1.04974,-2.73555 -0.85345,-7.58495 0.43618,-10.77643 2.08333,-5.15569 2.66555,-4.97083 5.22164,1.65791 3.29129,8.53533 19.66504,10.48316 25.81647,3.07114 4.65976,-5.61465 -1.29831,-12.18966 -11.04587,-12.18966 -16.52273,0 -27.94414,-18.883663 -17.64852,-29.179278 2.18845,-2.188445 11.18802,-3.978993 19.99905,-3.978993 16.94624,0 22.01329,4.562363 17.49246,15.750178 -2.08333,5.155683 -2.66555,4.970823 -5.22165,-1.657915 -3.32083,-8.611934 -19.6854,-10.458616 -25.93625,-2.92681 -5.07637,6.116645 2.78751,12.523008 18.51381,15.082418 15.90108,2.58786 20.55203,10.19338 13.14578,21.49675 -4.84112,7.38848 -8.03085,8.62443 -22.25773,8.62443 -11.70276,0 -17.17038,-1.46875 -18.51537,-4.97374 z M 89.509777,105.84684 c -0.149778,-8.227023 -4.701802,-17.408087 -8.631023,-17.408087 -2.522858,0 -3.596423,1.451002 -4.632291,2.48687 -1.509389,2.614336 -2.061705,5.950664 -3.132652,9.947487 -1.700292,6.34557 0.385444,7.46061 7.764943,7.46061 4.771966,0 8.655925,-1.1191 8.631023,-2.48688 z m -26.226526,18.23705 c 0.140151,-7.75074 2.053115,-20.06075 4.251022,-27.355573 3.481399,-11.554699 5.250277,-13.263303 13.73121,-13.263303 8.480933,0 10.249812,1.708604 13.731205,13.263303 4.941914,16.402133 5.661012,41.447833 1.190031,41.447833 -1.823711,0 -3.315832,-2.8622 -3.315832,-6.36046 0,-11.26805 -3.844705,-16.85032 -11.605404,-16.85032 -7.760697,0 -11.605401,5.58227 -11.605401,16.85032 0,3.49826 -1.492124,6.36046 -3.31583,6.36046 -1.823705,0 -3.201158,-6.34151 -3.061001,-14.09226 z M 0.02751683,96.371371 0.06643386,52.167327 c 0,0 1.84791644,-5.743299 6.96365334,-8.424195 l 0.3709153,48.698563 c 0,0 -0.3939567,47.252095 2.3360416,50.130245 2.8210469,2.97414 131.4636959,1.81079 131.4636959,1.81079 0.6157,5.02427 -4.34409,6.23314 -4.34409,6.23314 0,0 -132.1152779,3.61193 -134.4144993,-2.12377 C 0.95266145,144.77638 0.03172183,114.59565 0.02751683,96.371371 Z"
       inkscape:connector-curvature="0"
       sodipodi:nodetypes="sssssssscssssssssssssssssscsssssssssssssccccsccsc" /></g><path
     style="fill:#000000"
     d=""
     id="path74528"
     inkscape:connector-curvature="0" /></svg>
